<svg width="943" height="830" viewBox="0 0 943 830" fill="none" xmlns="http://www.w3.org/2000/svg">
<path d="M302.216 829.943C243.153 829.943 192.528 821.506 150.341 804.631C108.409 788.011 75.8097 765 52.5426 735.597C29.5312 706.449 16.6193 672.955 13.8068 635.114H217.841C219.886 647.642 225 657.741 233.182 665.412C241.364 673.082 251.847 678.58 264.631 681.903C277.67 685.483 292.244 687.273 308.352 687.273C335.71 687.273 358.338 680.625 376.236 667.33C394.389 654.034 403.466 630 403.466 595.227V495.511H397.33C389.659 515.455 377.898 532.457 362.045 546.52C346.193 560.327 327.145 570.938 304.901 578.352C282.656 585.511 258.239 589.091 231.648 589.091C189.716 589.091 151.108 579.375 115.824 559.943C80.7955 540.511 52.6705 509.702 31.4489 467.514C10.483 425.327 0 370.227 0 302.216C0 231.136 10.9943 173.352 32.983 128.864C55.2273 84.375 83.8636 51.7755 118.892 31.0653C154.176 10.3551 191.25 0 230.114 0C259.261 0 284.83 5.11362 306.818 15.3409C328.807 25.3125 347.216 38.7358 362.045 55.6108C376.875 72.2301 388.125 90.5113 395.795 110.455H400.398V7.67043H612.102V595.227C612.102 645.085 599.19 687.401 573.367 722.173C547.798 757.202 511.747 783.92 465.213 802.33C418.679 820.739 364.347 829.943 302.216 829.943ZM309.886 438.75C329.318 438.75 345.938 433.381 359.744 422.642C373.807 411.648 384.545 396.051 391.96 375.852C399.631 355.398 403.466 330.852 403.466 302.216C403.466 273.068 399.631 248.139 391.96 227.429C384.545 206.463 373.807 190.483 359.744 179.489C345.938 168.239 329.318 162.614 309.886 162.614C290.455 162.614 273.835 168.239 260.028 179.489C246.477 190.483 235.994 206.463 228.58 227.429C221.42 248.139 217.841 273.068 217.841 302.216C217.841 331.364 221.42 356.165 228.58 376.619C235.994 396.818 246.477 412.287 260.028 423.026C273.835 433.508 290.455 438.75 309.886 438.75Z" fill="white"/>
<path d="M834.833 609.034C805.174 609.034 779.734 598.679 758.512 577.969C737.546 557.003 727.191 531.562 727.447 501.648C727.191 472.5 737.546 447.571 758.512 426.861C779.734 406.151 805.174 395.795 834.833 395.795C862.958 395.795 887.759 406.151 909.237 426.861C930.969 447.571 941.964 472.5 942.219 501.648C941.964 521.591 936.722 539.744 926.495 556.108C916.523 572.216 903.484 585.128 887.376 594.844C871.268 604.304 853.754 609.034 834.833 609.034Z" fill="#FF4D00"/>
</svg>
